#!OML:ASF C:\Vicon Data\Big\jianyuan-13\jianyuan\Session 1\Capture.male.ASF
:FULLY-SPECIFIED
:DEGREES
126
root -8.348298 17.267000 -10.049345 9.216647 -9.204486 -1.623664
lowerback -15.030403 5.639937 0.232847 
upperback -0.884533 7.566713 -1.645354 
thorax 7.702696 3.704936 -0.254089 
lowerneck -5.555812 -2.829143 3.969393 
upperneck -3.012885 -4.008997 -2.722064 
head -0.142780 -2.051640 -1.567011 
rclavicle 0.000000 0.000000 
rhumerus -20.212716 0.757305 -94.859802 
rradius 44.801938 
rwrist 20.515148 
rhand -14.930449 -16.913443 
rfingers 0.000000 
rthumb 11.231818 -46.592744 
lclavicle 0.000000 0.000000 
lhumerus -78.784329 37.931382 24.594430 
lradius 22.658731 
lwrist -68.597357 
lhand -18.170144 1.294229 
lfingers 0.000000 
lthumb 8.106136 31.118742 
rfemur 6.519600 5.692335 22.388760 
rtibia 30.641286 
rfoot -10.379222 3.069804 
rtoes -31.820876 
lfemur -35.449229 -0.308454 -14.063651 
ltibia 18.728638 
lfoot -12.904172 16.089303 
ltoes -30.358299 
127
root -8.334724 17.277418 -9.949303 9.229461 -8.837974 -1.432603
lowerback -15.101335 5.496876 -0.025686 
upperback -0.869242 7.423587 -1.672156 
thorax 7.726474 3.626471 -0.164470 
lowerneck -5.682369 -2.834945 3.969500 
upperneck -3.040251 -4.021329 -2.719670 
head -0.130583 -2.058634 -1.568560 
rclavicle 0.000000 0.000000 
rhumerus -20.602146 0.126765 -94.872983 
rradius 44.133438 
rwrist 20.801262 
rhand -15.346946 -17.124444 
rfingers 0.000000 
rthumb 10.830115 -46.825087 
lclavicle 0.000000 0.000000 
lhumerus -78.572285 38.169209 24.714389 
lradius 22.586178 
lwrist -68.922114 
lhand -18.438471 1.491118 
lfingers 0.000000 
lthumb 7.847137 31.325446 
rfemur 6.531913 5.534804 22.185488 
rtibia 31.076444 
rfoot -9.643698 2.852278 
rtoes -31.439952 
lfemur -35.413514 -0.211587 -14.493038 
ltibia 18.905499 
lfoot -11.684356 16.056290 
ltoes -30.539582 
128
root -8.318443 17.286536 -9.850827 9.305155 -8.434637 -1.173246
lowerback -15.202223 5.343514 -0.330012 
upperback -0.902851 7.276582 -1.731044 
thorax 7.713957 3.545365 -0.084334 
lowerneck -5.742962 -2.850837 3.955005 
upperneck -3.059486 -4.044007 -2.726707 
head -0.127136 -2.070266 -1.569516 
rclavicle 0.000000 0.000000 
rhumerus -21.032654 -0.494904 -94.845268 
rradius 43.414092 
rwrist 21.183949 
rhand -15.809025 -17.281525 
rfingers 0.000000 
rthumb 10.384348 -47.005016 
lclavicle 0.000000 0.000000 
lhumerus -78.249698 38.324954 24.995105 
lradius 22.511127 
lwrist -69.031457 
lhand -18.658314 1.642099 
lfingers 0.000000 
lthumb 7.634967 31.484247 
rfemur 6.396823 5.107286 21.831834 
rtibia 31.559058 
rfoot -8.813352 2.783010 
rtoes -31.586253 
lfemur -35.516865 0.044522 -15.135740 
ltibia 19.255422 
lfoot -10.644760 15.786100 
ltoes -30.028953 
129
root -8.305848 17.291864 -9.752120 9.379373 -8.060254 -0.950665
lowerback -15.306244 5.202663 -0.629562 
upperback -0.923770 7.146065 -1.788046 
thorax 7.718351 3.472185 -0.000091 
lowerneck -5.803551 -2.865889 4.039294 
upperneck -3.117683 -4.072125 -2.782422 
head -0.138988 -2.085971 -1.602962 
rclavicle 0.000000 0.000000 
rhumerus -21.465016 -1.157227 -94.819911 
rradius 42.741054 
rwrist 21.592197 
rhand -16.083539 -17.348683 
rfingers 0.000000 
rthumb 10.119534 -47.085312 
lclavicle 0.000000 0.000000 
lhumerus -78.046293 38.617339 24.998474 
lradius 22.479813 
lwrist -69.267933 
lhand -18.594500 1.662445 
lfingers 0.000000 
lthumb 7.696563 31.502341 
rfemur 6.238009 4.788853 21.568567 
rtibia 32.139527 
rfoot -7.969214 2.625702 
rtoes -32.034677 
lfemur -35.598954 0.628892 -15.910436 
ltibia 19.684515 
lfoot -9.447022 15.480444 
ltoes -29.972124 
130
root -8.294230 17.297463 -9.651550 9.400200 -7.661808 -0.806461
lowerback -15.329511 5.086791 -0.856222 
upperback -0.953768 7.033203 -1.818999 
thorax 7.674696 3.410883 0.067543 
lowerneck -5.776752 -2.917504 4.027602 
upperneck -3.184047 -4.139993 -2.794088 
head -0.166602 -2.119878 -1.604094 
rclavicle 0.000000 0.000000 
rhumerus -21.999165 -1.781765 -94.764127 
rradius 42.174645 
rwrist 21.639693 
rhand -16.482908 -17.694425 
rfingers 0.000000 
rthumb 9.734250 -47.449269 
lclavicle 0.000000 0.000000 
lhumerus -77.907948 38.907074 24.898875 
lradius 22.425586 
lwrist -69.710571 
lhand -18.765431 1.744502 
lfingers 0.000000 
lthumb 7.531595 31.590260 
rfemur 6.104745 4.546960 21.421117 
rtibia 32.796367 
rfoot -7.080143 2.422910 
rtoes -32.150511 
lfemur -35.638504 1.164373 -16.581872 
ltibia 20.191940 
lfoot -8.240615 15.088639 
ltoes -30.088760 
131
root -8.278746 17.305409 -9.551991 9.471915 -7.140763 -0.616783
lowerback -15.402526 4.910794 -1.097661 
upperback -0.989234 6.843648 -1.843519 
thorax 7.650898 3.311309 0.137835 
lowerneck -5.766719 -2.957550 3.958693 
upperneck -3.246509 -4.189306 -2.763789 
head -0.187476 -2.143812 -1.581911 
rclavicle 0.000000 0.000000 
rhumerus -22.536118 -2.433471 -94.692969 
rradius 41.570584 
rwrist 21.693447 
rhand -16.981361 -18.108949 
rfingers 0.000000 
rthumb 9.253343 -47.885843 
lclavicle 0.000000 0.000000 
lhumerus -77.736129 39.203905 24.934204 
lradius 22.365304 
lwrist -70.130370 
lhand -19.049256 1.911895 
lfingers 0.000000 
lthumb 7.257612 31.767438 
rfemur 5.840553 4.087181 21.174111 
rtibia 33.509461 
rfoot -6.123344 2.284556 
rtoes -31.843380 
lfemur -35.822867 1.558635 -17.285089 
ltibia 20.764311 
lfoot -6.965923 14.311885 
ltoes -30.673626 
132
root -8.263036 17.313892 -9.453700 9.457970 -6.641025 -0.530267
lowerback -15.370096 4.755475 -1.190547 
upperback -0.997239 6.653870 -1.853880 
thorax 7.614442 3.217231 0.133837 
lowerneck -5.753281 -2.997003 3.912578 
upperneck -3.322121 -4.239028 -2.722562 
head -0.213191 -2.168185 -1.560006 
rclavicle 0.000000 0.000000 
rhumerus -23.070177 -2.967911 -94.599999 
rradius 40.914473 
rwrist 21.851828 
rhand -17.217188 -18.253656 
rfingers 0.000000 
rthumb 9.025805 -48.040558 
lclavicle 0.000000 0.000000 
lhumerus -77.515381 39.557613 24.971179 
lradius 22.270207 
lwrist -70.161586 
lhand -19.129402 2.007810 
lfingers 0.000000 
lthumb 7.180258 31.865996 
rfemur 5.611232 3.550197 21.016780 
rtibia 34.302318 
rfoot -5.101243 2.169017 
rtoes -32.167453 
lfemur -35.927365 1.877681 -17.813049 
ltibia 21.329951 
lfoot -6.032186 13.196851 
ltoes -31.218444 
133
root -8.247206 17.321058 -9.356583 9.515133 -6.116729 -0.329536
lowerback -15.448491 4.587922 -1.417082 
upperback -1.011175 6.477287 -1.914723 
thorax 7.625266 3.124579 0.162309 
lowerneck -5.783106 -3.044329 3.950524 
upperneck -3.363057 -4.305440 -2.712331 
head -0.223963 -2.202048 -1.564170 
rclavicle 0.000000 0.000000 
rhumerus -23.617100 -3.645291 -94.472189 
rradius 40.359422 
rwrist 22.099175 
rhand -17.318796 -18.339889 
rfingers 0.000000 
rthumb 8.927754 -48.130933 
lclavicle 0.000000 0.000000 
lhumerus -77.682498 40.114172 24.353429 
lradius 22.189746 
lwrist -71.108395 
lhand -19.184031 1.901642 
lfingers 0.000000 
lthumb 7.127530 31.761587 
rfemur 5.221134 2.986501 20.730789 
rtibia 35.195843 
rfoot -4.062288 2.137209 
rtoes -32.417481 
lfemur -36.110311 1.907654 -18.336258 
ltibia 21.863475 
lfoot -5.531170 12.073151 
ltoes -31.187230 
134
root -8.232113 17.327955 -9.263241 9.588217 -5.572192 -0.216180
lowerback -15.523979 4.427099 -1.574483 
upperback -1.017615 6.294122 -1.925723 
thorax 7.644899 3.030065 0.203967 
lowerneck -5.818878 -3.100989 3.846613 
upperneck -3.423092 -4.375555 -2.624215 
head -0.234954 -2.236015 -1.518622 
rclavicle 0.000000 0.000000 
rhumerus -24.116382 -4.327208 -94.334561 
rradius 39.792588 
rwrist 22.265104 
rhand -17.623723 -18.571934 
rfingers 0.000000 
rthumb 8.633444 -48.375388 
lclavicle 0.000000 0.000000 
lhumerus -77.507074 40.554547 24.301572 
lradius 22.071820 
lwrist -71.646706 
lhand -19.333612 2.077046 
lfingers 0.000000 
lthumb 6.983154 31.941874 
rfemur 4.776716 2.642784 20.649558 
rtibia 36.164333 
rfoot -3.088100 1.908187 
rtoes -32.673487 
lfemur -36.289636 1.862865 -18.727716 
ltibia 22.353806 
lfoot -4.838899 11.070617 
ltoes -31.186224 
135
root -8.214106 17.332670 -9.170618 9.556258 -5.075044 -0.140751
lowerback -15.471260 4.313526 -1.624138 
upperback -1.024227 6.153206 -1.953677 
thorax 7.606989 2.961649 0.167016 
lowerneck -5.770482 -3.183152 3.819167 
upperneck -3.478723 -4.481789 -2.588805 
head -0.262602 -2.288567 -1.501920 
rclavicle 0.000000 0.000000 
rhumerus -24.665788 -4.973360 -94.134505 
rradius 39.198814 
rwrist 22.391125 
rhand -17.971078 -18.922203 
rfingers 0.000000 
rthumb 8.298240 -48.739162 
lclavicle 0.000000 0.000000 
lhumerus -77.192373 40.926354 24.366915 
lradius 21.975472 
lwrist -72.135436 
lhand -19.387208 2.187508 
lfingers 0.000000 
lthumb 6.931418 32.054029 
rfemur 4.363871 2.096423 20.508040 
rtibia 37.237643 
rfoot -2.131339 1.852454 
rtoes -32.918837 
lfemur -36.324573 1.834108 -19.082763 
ltibia 22.813540 
lfoot -3.790209 10.311211 
ltoes -31.671735 
136
root -8.194657 17.336320 -9.079665 9.454112 -4.595739 0.064819
lowerback -15.327658 4.192970 -1.813944 
upperback -1.028315 6.027356 -2.017029 
thorax 7.510929 2.897792 0.166749 
lowerneck -5.717313 -3.258780 3.858882 
upperneck -3.537408 -4.582827 -2.550513 
head -0.293216 -2.339287 -1.495729 
rclavicle 0.000000 0.000000 
rhumerus -25.245639 -5.701646 -93.953109 
rradius 38.651736 
rwrist 22.503409 
rhand -18.182464 -19.119746 
rfingers 0.000000 
rthumb 8.094228 -48.944770 
lclavicle 0.000000 0.000000 
lhumerus -76.976544 41.324303 24.320567 
lradius 21.915946 
lwrist -72.604896 
lhand -19.586361 2.335530 
lfingers 0.000000 
lthumb 6.739125 32.208254 
rfemur 3.988115 1.648135 20.281177 
rtibia 38.389982 
rfoot -1.272172 1.740053 
rtoes -33.774452 
lfemur -36.250824 1.659917 -19.503439 
ltibia 23.260847 
lfoot -2.907023 9.562632 
ltoes -31.975511 
